# xmcd CD database file
#
# Track frame offsets:
#	150
#	21447
#	42594
#	63591
#	83014
#	104014
#	124335
#	150732
#	175779
#	200413
#
# Disc length: 2945 seconds
#
# Revision: 0
# Processed by: cddbd v1.4PL0 Copyright (c) Steve Scherf et al.
# Submitted via: CDex 1.51
#
DISCID=8b0b7f0a
DTITLE=Various Artist - smoothjazz vol. 1
DYEAR=2003
DGENRE=Jazz
TTITLE0=Steve Oliver - Show Me Love
TTITLE1=Jeff Kashiwa - Voices
TTITLE2=Brian Bromberg feat. Richard Elliot - Relentless
TTITLE3=Everette Harp feat. Brian Bromberg - Rock With You
TTITLE4=Joe Sherbanee with Marc Antoine - Big City
TTITLE5=Theo Bishop - Off The Cuff
TTITLE6=Eric Brenton - Prelude #1 and Allegro Solemne
TTITLE7=Tony Guerrero - If I Could Have It All
TTITLE8=Steve Oliver - West End
TTITLE9=Jeff Kashiwa - Back To Love
EXTD=YEAR: 2003
EXTT0=
EXTT1=
EXTT2=
EXTT3=
EXTT4=
EXTT5=
EXTT6=
EXTT7=
EXTT8=
EXTT9=
PLAYORDER=
